# File created by Blade
# Date/Time:  Thu Jan 22 19:29:47 2015
#---------------------------------------------------------
:version 1.10
:name HOM
:units
  mass 1.0
  length 1.000000
  angle deg
:documentation
     Acclaim Skeleton File
:root
   axis xyz
   order TX TY TZ RX RY RZ
   position 0.000000 0.000000 0.000000
   orientation 0 0 0
:bonedata
   begin
      id 1
      name RightUpLeg_dum
      direction -1.000000 0.000000 0.000000
      length 4.478084
      axis 0.0 0.0 0.0 xyz
   end
   begin
      id 2
      name LeftUpLeg_dum
      direction 1.000000 0.000000 0.000000
      length 4.478084
      axis 0.0 0.0 0.0 xyz
   end
   begin
      id 3
      name Spine_dum
      direction 0.000000 1.000000 0.000000
      length 6.068208
      axis 0.0 0.0 0.0 xyz
   end
   begin
      id 4
      name RightUpLeg
      direction 0.000000 -1.000000 0.000000
      length 16.405774
      axis 0.0 0.0 0.0 xyz
      dof rx ry rz
   end
   begin
      id 5
      name RightLeg
      direction 0.000000 -1.000000 0.000000
      length 14.644143
      axis 0.0 0.0 0.0 xyz
      dof rx ry rz
   end
   begin
      id 6
      name RightFoot
      direction 0.000000 -0.258819 0.965926
      length 5.806150
      axis 15.0 0.0 0.0 xyz
      dof rx ry rz
   end
   begin
      id 7
      name RightToeBase
      direction 0.000000 0.000000 1.000000
      length 2.952750
      axis 0.0 0.0 0.0 xyz
      dof rx ry rz
   end
   begin
      id 8
      name LeftUpLeg
      direction 0.000000 -1.000000 0.000000
      length 16.405774
      axis 0.0 0.0 0.0 xyz
      dof rx ry rz
   end
   begin
      id 9
      name LeftLeg
      direction 0.000000 -1.000000 0.000000
      length 14.644143
      axis 0.0 0.0 0.0 xyz
      dof rx ry rz
   end
   begin
      id 10
      name LeftFoot
      direction 0.000000 -0.258819 0.965926
      length 5.806150
      axis 15.0 0.0 0.0 xyz
      dof rx ry rz
   end
   begin
      id 11
      name LeftToeBase
      direction 0.000000 0.000000 1.000000
      length 2.952750
      axis 0.0 0.0 0.0 xyz
      dof rx ry rz
   end
   begin
      id 12
      name Spine
      direction 0.000000 1.000000 0.000000
      length 0.000000
      axis 0.0 0.0 0.0 xyz
      dof rx ry rz
   end
   begin
      id 13
      name Spine_dum1
      direction 0.000000 1.000000 0.000000
      length 10.013923
      axis 0.0 0.0 0.0 xyz
   end
   begin
      id 14
      name Spine_dum2
      direction 0.000000 1.000000 0.000000
      length 10.013923
      axis 0.0 0.0 0.0 xyz
   end
   begin
      id 15
      name Spine_dum3
      direction 0.000000 1.000000 0.000000
      length 15.777476
      axis 0.0 0.0 0.0 xyz
   end
   begin
      id 16
      name RightShoulder
      direction -1.000000 0.000000 0.000000
      length 7.190220
      axis 0.0 0.0 90.0 xyz
      dof rx ry rz
   end
   begin
      id 17
      name RightArm
      direction -1.000000 0.000000 0.000000
      length 10.177469
      axis 0.0 0.0 90.0 xyz
      dof rx ry rz
   end
   begin
      id 18
      name RightForeArm
      direction -1.000000 0.000000 0.000000
      length 8.392114
      axis 0.0 0.0 90.0 xyz
      dof ry rz rx
   end
   begin
      id 19
      name RightHand
      direction -1.000000 0.000000 0.000000
      length 0.000000
      axis 0.0 0.0 90.0 xyz
      dof rx ry rz
   end
   begin
      id 20
      name RightHand_dum1
      direction -1.000000 0.000000 0.000000
      length 3.937000
      axis 0.0 0.0 90.0 xyz
   end
   begin
      id 21
      name RightHand_dum2
      direction 0.000000 0.000000 0.000000
      length 0.000000
      axis 0.0 0.0 90.0 xyz
   end
   begin
      id 22
      name RightHandThumb1
      direction 0.000000 0.000000 1.000000
      length 3.937000
      axis 0.0 0.0 90.0 xyz
      dof rx rz ry
   end
   begin
      id 23
      name LeftShoulder
      direction 1.000000 0.000000 0.000000
      length 7.190220
      axis 0.0 0.0 -90.0 xyz
      dof rx ry rz
   end
   begin
      id 24
      name LeftArm
      direction 1.000000 0.000000 0.000000
      length 10.177469
      axis 0.0 0.0 -90.0 xyz
      dof rx ry rz
   end
   begin
      id 25
      name LeftForeArm
      direction 1.000000 0.000000 0.000000
      length 8.392114
      axis 0.0 0.0 -90.0 xyz
      dof ry rz rx
   end
   begin
      id 26
      name LeftHand
      direction 1.000000 0.000000 0.000000
      length 0.000000
      axis 0.0 0.0 -90.0 xyz
      dof rx ry rz
   end
   begin
      id 27
      name LeftHand_dum1
      direction 1.000000 0.000000 0.000000
      length 3.937000
      axis 0.0 0.0 -90.0 xyz
   end
   begin
      id 28
      name LeftHand_dum2
      direction 0.000000 0.000000 0.000000
      length 0.000000
      axis 0.0 0.0 -90.0 xyz
   end
   begin
      id 29
      name LeftHandThumb1
      direction 0.000000 0.000000 1.000000
      length 3.937000
      axis 0.0 0.0 -90.0 xyz
      dof rx rz ry
   end
   begin
      id 30
      name Head
      direction 0.000000 1.000000 0.000000
      length 4.527550
      axis 0.0 0.0 0.0 xyz
      dof rx ry rz
   end
:hierarchy
   begin
      root RightUpLeg_dum LeftUpLeg_dum Spine_dum
      RightUpLeg_dum RightUpLeg
      LeftUpLeg_dum LeftUpLeg
      Spine_dum Spine
      RightUpLeg RightLeg
      RightLeg RightFoot
      RightFoot RightToeBase
      LeftUpLeg LeftLeg
      LeftLeg LeftFoot
      LeftFoot LeftToeBase
      Spine Spine_dum1 Spine_dum2 Spine_dum3
      Spine_dum1 RightShoulder
      Spine_dum2 LeftShoulder
      Spine_dum3 Head
      RightShoulder RightArm
      RightArm RightForeArm
      RightForeArm RightHand
      RightHand RightHand_dum1 RightHand_dum2
      RightHand_dum2 RightHandThumb1
      LeftShoulder LeftArm
      LeftArm LeftForeArm
      LeftForeArm LeftHand
      LeftHand LeftHand_dum1 LeftHand_dum2
      LeftHand_dum2 LeftHandThumb1
   end

# File created by Blade
# Date/Time:  Thu Jan 22 19:29:39 2015
# Frame Rate: 120.000 fps
#------------------------------------------------------
:FULLY-SPECIFIED
:DEGREES
458
root -3.416816 32.822282 0.255329 12.332178 -12.998392 -0.725022
RightUpLeg -9.547506 -0.013482 2.928461
RightLeg 3.990013 -0.000000 -0.000000
RightFoot -12.333215 -1.455336 2.375880
RightToeBase 4.717523 -0.000000 -0.000000
LeftUpLeg -26.504676 1.667625 1.739834
LeftLeg 36.527123 -0.000000 -0.000000
LeftFoot -17.443385 1.033163 -16.913166
LeftToeBase -2.956645 -0.000000 0.000000
Spine 0.347141 -5.147677 1.095896
RightShoulder -10.582470 -17.685699 -17.638833
RightArm 24.789087 -26.605512 76.169247
RightForeArm -5.201588 -0.000000 33.095253
RightHand 10.882541 -0.000000 0.357112
RightHandThumb1 -24.326973 -0.000000 -32.862282
LeftShoulder -16.791427 -9.080375 32.644261
LeftArm 63.710566 -5.059456 -72.035704
LeftForeArm -3.384240 -0.000000 23.326806
LeftHand -4.377018 -0.000000 19.902324
LeftHandThumb1 -26.253704 0.000000 33.147579
Head 7.681779 24.945523 -10.645135
459
root -3.345209 32.809588 0.285185 12.407104 -13.186181 -0.906829
RightUpLeg -9.621755 0.101318 2.927773
RightLeg 4.102883 -0.000000 -0.000000
RightFoot -12.424202 -1.388770 2.636735
RightToeBase 4.730636 -0.000000 -0.000000
LeftUpLeg -26.151571 1.513020 1.750505
LeftLeg 35.963006 -0.000000 -0.000000
LeftFoot -18.074902 1.468941 -16.923317
LeftToeBase -1.400959 -0.000000 0.000000
Spine 0.397522 -4.974910 1.265741
RightShoulder -10.504968 -17.574897 -17.577093
RightArm 24.969105 -26.595594 76.035249
RightForeArm -5.355893 0.000000 33.180071
RightHand 10.836390 -0.000000 0.002900
RightHandThumb1 -24.326973 -0.000000 -32.862282
LeftShoulder -16.846265 -8.895298 32.592024
LeftArm 63.896111 -5.159306 -72.150694
LeftForeArm -3.268860 -0.000000 23.620249
LeftHand -4.423941 -0.000000 19.808810
LeftHandThumb1 -26.253704 0.000000 33.147579
Head 7.634535 24.812724 -10.613431
460
root -3.271362 32.798562 0.317754 12.470775 -13.353693 -1.064380
RightUpLeg -9.698930 0.138623 2.902762
RightLeg 4.257709 -0.000000 -0.000000
RightFoot -12.536699 -1.248322 2.852428
RightToeBase 4.727615 -0.000000 -0.000000
LeftUpLeg -25.790820 1.373765 1.727888
LeftLeg 35.324177 -0.000000 -0.000000
LeftFoot -18.631243 1.870591 -16.992713
LeftToeBase 0.194006 -0.000000 -0.000000
Spine 0.458924 -4.789444 1.395311
RightShoulder -10.456062 -17.503125 -17.478698
RightArm 25.183658 -26.534011 75.893471
RightForeArm -5.494540 -0.000000 33.198488
RightHand 10.944120 -0.000000 -0.039263
RightHandThumb1 -24.326973 -0.000000 -32.862282
LeftShoulder -16.883341 -8.646870 32.480124
LeftArm 64.176015 -5.238296 -72.145414
LeftForeArm -3.305856 -0.000000 23.955117
LeftHand -4.307332 -0.000000 19.661252
LeftHandThumb1 -26.253704 0.000000 33.147579
Head 7.605311 24.608662 -10.517845
461
root -3.190316 32.789582 0.351849 12.495634 -13.503338 -1.191794
RightUpLeg -9.743041 0.082232 2.851978
RightLeg 4.404717 -0.000000 -0.000000
RightFoot -12.667486 -1.075152 3.050748
RightToeBase 4.772155 -0.000000 -0.000000
LeftUpLeg -25.382107 1.200214 1.677186
LeftLeg 34.588945 -0.000000 -0.000000
LeftFoot -19.110356 2.243127 -17.093968
LeftToeBase 1.791246 -0.000000 -0.000000
Spine 0.572560 -4.657221 1.508467
RightShoulder -10.395162 -17.411477 -17.396755
RightArm 25.412025 -26.422863 75.790640
RightForeArm -5.733581 -0.000000 33.162341
RightHand 10.948872 -0.000000 -0.007225
RightHandThumb1 -24.326973 -0.000000 -32.862282
LeftShoulder -16.910724 -8.815803 32.615167
LeftArm 63.867314 -5.233920 -72.258947
LeftForeArm -3.358780 0.000000 24.465051
LeftHand -4.358106 -0.000000 19.599294
LeftHandThumb1 -26.253704 0.000000 33.147579
Head 7.542656 24.397964 -10.468589
